HIERARCHY
ROOT Joint1
{
	OFFSET 0.000000 0.000000 0.000000
	CHANNELS 6 Xposition Yposition Zposition Xrotation Yrotation Zrotation
	JOINT Joint2
	{
		OFFSET -0.000000 0.000000 1.456275
		CHANNELS 6 Xposition Yposition Zposition Xrotation Yrotation Zrotation
		JOINT Joint3
		{
			OFFSET -0.000000 0.000002 1.471446
			CHANNELS 6 Xposition Yposition Zposition Xrotation Yrotation Zrotation
			JOINT Joint4
			{
				OFFSET 0.625745 0.000000 0.917755
				CHANNELS 6 Xposition Yposition Zposition Xrotation Yrotation Zrotation
				JOINT Joint5
				{
					OFFSET -0.629534 0.000001 0.940221
					CHANNELS 6 Xposition Yposition Zposition Xrotation Yrotation Zrotation
					JOINT Joint6
					{
						OFFSET -0.000001 0.113772 1.960660
						CHANNELS 6 Xposition Yposition Zposition Xrotation Yrotation Zrotation
						JOINT Joint7
						{
							OFFSET -0.669733 -0.113771 0.388340
							CHANNELS 6 Xposition Yposition Zposition Xrotation Yrotation Zrotation
							End Site
							{
								OFFSET 0.005509 0.005509 0.438980
							}
						}
					}
				}
			}
		}
	}
}
MOTION
Frames: 14
Frame Time: 0.041667
0.000000 0.000000 0.000000 -0.000000 1.019410 53.036361 -0.000000 0.000000 1.456275 -0.000000 -43.567393 0.000002 -0.000000 0.000002 1.471445 -0.000002 -1.133463 -42.583098 0.625745 0.000000 0.917755 0.000012 97.212430 -0.000005 -0.629534 0.000001 0.940221 -0.000001 1.709738 79.676295 -0.000001 0.113773 1.960661 -88.303841 94.800382 0.000023 -0.669733 -0.113771 0.388340 -1.207395 3.434253 -195.471408 
0.000000 0.000000 0.000000 -0.000000 1.019410 51.848345 -0.000000 0.000000 1.456275 -0.000002 -43.598983 0.000001 -0.000000 0.000002 1.471445 -0.000001 -1.133465 -41.630085 0.625744 0.000000 0.917755 0.000004 98.059223 -0.000015 -0.629533 0.000001 0.940221 -0.000000 1.709739 77.891409 -0.000001 0.113772 1.960660 -88.303827 94.692220 0.000029 -0.669733 -0.113771 0.388340 -1.197129 3.439978 -196.133540 
0.000000 0.000000 0.000000 -0.000000 1.019410 50.566534 -0.000000 -0.000000 1.456275 0.000001 -43.633079 0.000001 -0.000000 0.000002 1.471446 0.000000 -1.133461 -40.601834 0.625745 0.000000 0.917755 0.000015 98.972870 -0.000001 -0.629533 0.000001 0.940221 -0.000001 1.709740 75.965603 -0.000001 0.113772 1.960660 -88.303814 94.575519 0.000024 -0.669734 -0.113771 0.388340 -1.185978 3.446024 -196.847964 
0.000000 0.000000 0.000000 -0.000000 1.019410 48.956460 -0.000000 -0.000000 1.456275 0.000000 -43.675897 0.000002 -0.000000 0.000001 1.471446 0.000001 -1.133463 -39.310252 0.625745 0.000000 0.917755 0.000003 100.120506 -0.000005 -0.629534 0.000001 0.940221 -0.000002 1.709737 73.546610 -0.000001 0.113772 1.960660 -88.303834 94.428923 0.000042 -0.669733 -0.113771 0.388340 -1.171866 3.453422 -197.745356 
0.000000 0.000000 0.000000 -0.000000 1.019410 46.916515 -0.000000 -0.000000 1.456275 -0.000001 -43.730156 -0.000001 -0.000000 0.000002 1.471446 0.000001 -1.133470 -37.673834 0.625745 0.000000 0.917756 0.000016 101.574544 -0.000007 -0.629534 0.000001 0.940221 -0.000000 1.709736 70.481767 -0.000001 0.113772 1.960661 -88.303834 94.243182 0.000035 -0.669733 -0.113771 0.388340 -1.153820 3.462476 -198.882336 
0.000000 0.000000 0.000000 -0.000000 1.019410 44.876563 -0.000000 0.000000 1.456275 0.000001 -43.784409 0.000001 -0.000000 0.000002 1.471446 -0.000001 -1.133460 -36.037413 0.625745 0.000000 0.917755 -0.000001 103.028582 0.000001 -0.629533 0.000001 0.940221 0.000000 1.709736 67.416925 -0.000001 0.113773 1.960661 -88.303834 94.057463 0.000034 -0.669733 -0.113771 0.388341 -1.135600 3.471170 -200.019344 
0.000000 0.000000 0.000000 -0.000000 1.019410 43.266489 -0.000000 -0.000000 1.456275 0.000002 -43.827227 -0.000001 -0.000000 0.000002 1.471446 0.000003 -1.133464 -34.745828 0.625745 0.000001 0.917755 -0.000004 104.176210 0.000001 -0.629534 0.000001 0.940221 -0.000001 1.709734 64.997931 -0.000001 0.113771 1.960661 -88.303834 93.910873 0.000036 -0.669734 -0.113771 0.388340 -1.121097 3.477776 -200.916763 
0.000000 0.000000 0.000000 -0.000000 1.019410 41.984681 -0.000000 0.000000 1.456275 -0.000001 -43.861320 0.000000 -0.000000 0.000002 1.471446 0.000002 -1.133465 -33.717584 0.625745 0.000001 0.917755 0.000006 105.089857 -0.000003 -0.629534 0.000001 0.940220 -0.000002 1.709737 63.072139 -0.000001 0.113773 1.960661 -88.303834 93.794173 0.000034 -0.669734 -0.113771 0.388339 -1.109481 3.482874 -201.631214 
0.000000 0.000000 0.000000 -0.000000 1.019410 40.796662 -0.000000 0.000000 1.456275 -0.000002 -43.892913 -0.000006 -0.000000 0.000001 1.471446 0.000003 -1.133460 -32.764571 0.625744 0.000000 0.917755 0.000001 105.936651 -0.000001 -0.629533 0.000001 0.940221 0.000000 1.709738 61.287246 -0.000001 0.113773 1.960661 -88.303834 93.686003 0.000024 -0.669733 -0.113771 0.388339 -1.098656 3.487467 -202.293387 
0.000000 0.000000 0.000000 -0.000000 1.019410 39.514854 -0.000000 0.000000 1.456275 -0.000000 -43.927002 0.000001 -0.000000 0.000002 1.471446 0.000002 -1.133464 -31.736324 0.625745 0.000000 0.917755 0.000004 106.850298 -0.000005 -0.629533 0.000001 0.940221 -0.000002 1.709737 59.361447 -0.000001 0.113772 1.960661 -88.303827 93.569295 0.000028 -0.669733 -0.113771 0.388341 -1.086919 3.492283 -203.007825 
0.000000 0.000000 0.000000 -0.000000 1.019410 38.139257 -0.000000 0.000000 1.456275 -0.000003 -43.963592 -0.000005 -0.000000 0.000002 1.471446 0.000002 -1.133465 -30.632832 0.625745 0.000000 0.917755 0.000008 107.830799 -0.000003 -0.629534 0.000001 0.940221 -0.000000 1.709737 57.294734 -0.000001 0.113772 1.960661 -88.303834 93.444050 0.000036 -0.669733 -0.113771 0.388341 -1.074256 3.497290 -203.774596 
0.000000 0.000000 0.000000 -0.000000 1.019410 36.716768 -0.000000 0.000000 1.456275 -0.000002 -44.001421 -0.000000 -0.000000 0.000002 1.471446 -0.000001 -1.133466 -29.491725 0.625745 0.000000 0.917755 0.000005 108.844727 0.000000 -0.629533 0.000001 0.940221 -0.000001 1.709739 55.157558 -0.000001 0.113773 1.960661 -88.303827 93.314543 0.000038 -0.669733 -0.113771 0.388340 -1.061094 3.502289 -204.567471 
0.000000 0.000000 0.000000 -0.000000 1.019410 35.294272 -0.000000 0.000000 1.456275 -0.000004 -44.039257 0.000001 -0.000000 0.000002 1.471446 -0.000002 -1.133463 -28.350628 0.625745 0.000000 0.917755 0.000003 109.858655 -0.000001 -0.629534 0.000001 0.940221 -0.000001 1.709737 53.020392 -0.000001 0.113772 1.960661 -88.303821 93.185029 0.000020 -0.669733 -0.113771 0.388339 -1.047863 3.507105 -205.360361 
0.000000 0.000000 0.000000 -0.000000 1.019410 33.918672 -0.000000 0.000000 1.456275 0.000004 -44.075839 0.000002 -0.000000 0.000002 1.471446 0.000001 -1.133461 -27.247134 0.625745 0.000001 0.917755 0.000002 110.839156 -0.000002 -0.629534 0.000001 0.940221 -0.000001 1.709736 50.953669 -0.000001 0.113771 1.960661 -88.303821 93.059784 0.000045 -0.669733 -0.113771 0.388341 -1.035005 3.511590 -206.127131 
